<?xml version="1.0" encoding="UTF-8" standalone="no"?>
<!DOCTYPE svg PUBLIC "-//W3C//DTD SVG 1.1//EN" "http://www.w3.org/Graphics/SVG/1.1/DTD/svg11.dtd">
<svg width="100%" height="100%" viewBox="0 0 500 500" version="1.1" xmlns="http://www.w3.org/2000/svg" xmlns:xlink="http://www.w3.org/1999/xlink" xml:space="preserve" xmlns:serif="http://www.serif.com/" style="fill-rule:evenodd;clip-rule:evenodd;stroke-linejoin:round;stroke-miterlimit:2;">
    <g id="dOOUBaJf6S2KI3Adur3uR" transform="matrix(2.32,0,0,2.32,281.01,176.47)">
        <g transform="matrix(1.71762,0,0,1.71762,-15.9172,31.2958)">
            <path d="M25.507,-32.768C25.216,-32.016 22.437,-32.531 30.677,-33.82C39.347,-35.176 41.203,-31.345 41.203,-31.345C41.203,-31.345 44.268,-24.306 44.11,-18.131C43.952,-11.955 42.861,-9.83 42.861,-9.83C42.861,-9.83 42.402,-8.229 40.515,-5.945C38.655,-3.693 26.586,-5.433 26.586,-5.433L23.718,-4.706C21.354,-4.107 19.128,-3.059 17.16,-1.619L12.441,1.833L1.624,8.681L-4.263,7.923C-4.263,7.923 -5.8,6.562 -6.429,5.934C-6.938,5.426 -8.615,3.426 -8.615,3.426L-11.039,0.414C-11.039,0.414 -10.418,-1.159 -10.939,-2.258C-11.395,-3.222 -12.289,-3.708 -13.136,-4.157C-13.441,-4.318 -13.809,-4.309 -14.105,-4.132L-14.183,-4.085C-15.531,-3.279 -17.214,-3.284 -18.557,-4.098C-19.451,-4.937 -19.886,-6.153 -19.728,-7.368L-19.639,-8.047C-19.414,-9.772 -18.436,-11.309 -16.969,-12.245L-16.96,-12.251C-16.845,-12.325 -16.809,-12.476 -16.878,-12.593C-16.971,-12.753 -17.098,-12.952 -17.219,-13.039C-17.226,-13.043 -17.26,-13.05 -17.279,-13.046C-18.76,-12.757 -20.099,-11.976 -21.08,-10.831L-22.651,-8.997C-23.91,-7.528 -24.816,-5.79 -25.3,-3.916C-25.335,-3.78 -25.279,-3.636 -25.161,-3.559C-25.043,-3.483 -24.889,-3.49 -24.779,-3.578L-23.88,-4.292C-23.76,-4.388 -23.601,-4.417 -23.455,-4.37C-23.309,-4.323 -23.197,-4.207 -23.155,-4.06L-21.702,1.032C-21.221,2.718 -20.483,4.318 -19.514,5.778L-18.957,6.617C-17.242,9.202 -15.095,11.472 -12.611,13.329L-7.833,16.901C-7.833,16.901 1.508,22.715 3.477,23.121C9.536,24.37 24.162,17.512 34.622,17.089C35.747,17.043 36.832,17.512 37.57,18.362C38.308,19.212 38.619,20.352 38.415,21.459C38.225,22.497 37.998,23.862 37.711,24.578C37.612,24.823 37.522,25.025 37.43,25.245C35.712,29.322 32.196,32.368 27.916,33.488C24.269,34.441 20.857,35.083 16.538,34.508C16.034,34.44 -2.923,26.54 -3.727,25.941C-4.245,25.556 -6.848,24.262 -8.414,23.492C-10.156,22.635 -11.812,21.613 -13.359,20.44C-14.769,19.37 -16.217,18.239 -17.567,17.113C-22.401,13.083 -22.595,12.71 -22.595,12.71C-22.595,12.71 -19.969,16.814 -12.972,21.791C-10.153,23.796 1.928,30.217 11.645,35.29C14.19,36.619 17.171,37.281 19.951,37.584C21.823,37.788 23.604,37.829 25.101,37.8C27.605,37.753 29.404,35.29 29.404,35.29C29.404,35.29 34.444,48.789 36.332,49.552C42.587,52.083 -19.981,49.895 -20.976,49.552C-21.972,49.209 -6.004,42.15 -10.939,34.508C-14.367,29.197 -29.325,22.399 -29.325,22.399L-33.866,19.081C-37.844,16.173 -40.921,12.201 -42.741,7.622L-42.768,7.552C-44.246,3.834 -44.516,-0.255 -43.541,-4.135L-42.527,-8.168C-41.269,-13.173 -39.332,-17.983 -36.771,-22.464C-36.158,-23.536 -35.105,-25.319 -34.858,-25.681C-34.099,-26.796 -32.577,-31.018 -31.874,-32.888L-31.874,-32.888C-31.172,-34.759 -30.46,-35.965 -30.46,-35.965L-29.325,-38.432C-29.325,-38.432 -28.283,-40.252 -26.823,-41.058C-25.364,-41.863 -24.266,-42.01 -24.193,-41.998C-24.187,-41.997 -24.176,-42.001 -24.167,-42.002C-22.415,-42.255 -20.627,-42.101 -18.944,-41.551C-18.877,-41.529 -18.806,-41.498 -18.746,-41.472C-17.636,-40.998 -16.036,-39.807 -16.036,-39.807L-14.786,-38.805C-14.516,-38.59 -14.13,-38.597 -13.87,-38.824L-13.719,-38.955C-13.629,-39.034 -13.575,-39.147 -13.571,-39.266C-13.566,-39.386 -13.612,-39.502 -13.696,-39.587L-14.704,-40.607C-15.801,-41.715 -17.155,-42.534 -18.645,-42.991C-19.017,-43.105 -19.29,-43.424 -19.345,-43.809C-19.4,-44.194 -19.228,-44.577 -18.903,-44.791L-12.972,-48.69C-12.972,-48.69 -9.623,-50.564 -5.221,-50.732C-2.436,-50.838 -0.979,-50.61 1.049,-50.159C2.786,-49.773 4.061,-48.534 4.497,-46.809C4.594,-46.422 4.636,-46.084 4.636,-45.685L4.636,-45.24C4.636,-45.172 4.681,-45.112 4.747,-45.093C4.812,-45.074 4.883,-45.1 4.92,-45.158L5.786,-46.521C6.309,-47.345 6.984,-48.061 7.775,-48.633C8.407,-49.091 9.143,-49.385 9.917,-49.488L11.11,-49.649C12.435,-49.826 13.782,-49.702 15.052,-49.285L15.623,-49.097C17.341,-48.533 18.849,-47.464 19.951,-46.03L21.078,-44.564C22.384,-42.864 23.422,-40.973 24.153,-38.957C24.853,-37.026 25.536,-34.962 25.536,-32.888L25.506,-32.764L25.507,-32.768Z" style="fill:rgb(76,106,135);"/>
        </g>
        <g transform="matrix(1.71762,0,0,1.71762,-15.9172,31.2958)">
            <path d="M-21.726,-34.754C-16.529,-34.754 -9.099,-27.683 -9.099,-22.009L-9.099,-21.312C-9.099,-21.119 -9.139,-20.95 -9.224,-20.798C-9.366,-20.545 -10.144,-20.397 -10.548,-20.373C-10.57,-20.371 -10.712,-20.383 -10.792,-20.391C-10.943,-20.405 -11.09,-20.335 -11.176,-20.209C-11.261,-20.083 -11.272,-19.92 -11.203,-19.783C-11.228,-19.786 -11.279,-19.792 -11.279,-19.792C-11.279,-19.792 -11.155,-19.659 -10.233,-19.162C-9.311,-18.665 -8.863,-18.135 -8.863,-18.135C-8.863,-18.135 -7.419,-16.533 -7.589,-16.501C-7.718,-16.476 -9.249,-17.845 -10.743,-18.576C-12.236,-19.306 -13.561,-19.425 -13.561,-19.425L-15.027,-19.499C-18.782,-19.691 -22.52,-18.863 -25.846,-17.102C-26.001,-17.02 -26.1,-16.963 -26.311,-16.847C-26.356,-16.823 -26.365,-16.818 -26.392,-16.803C-29.146,-15.18 -31.069,-12.44 -31.666,-9.288C-31.762,-8.782 -32.02,-7.755 -32.067,-7.781C-32.212,-7.861 -32.559,-10.924 -32.067,-13.47C-31.574,-16.017 -30.004,-17.195 -30.027,-17.246C-30.704,-18.793 -31.139,-22.903 -31.139,-24.474C-31.139,-30.148 -26.922,-34.754 -21.726,-34.754L-21.726,-34.754Z" style="fill:rgb(254,129,129);"/>
        </g>
        <g transform="matrix(0.736226,0,0,0.848103,-223.806,-145.111)">
            <path d="M300.515,301.734C332.175,301.734 358.081,305.181 365.232,308.406C366.452,308.956 368.029,308.334 368.029,308.911C368.029,312.873 337.577,316.089 300.515,316.089C263.453,316.089 233.333,312.367 233.333,308.406C233.333,307.565 234.731,308.083 237.223,307.332C246.469,304.549 271.325,301.734 300.515,301.734Z" style="fill:rgb(76,106,135);"/>
        </g>
    </g>
    <g transform="matrix(1.47715,-0.893161,0.858808,1.42562,288.86,189.252)">
        <g id="I1_wz8OaaBSPuJ7PsaKcY">
            <path d="M-1.55,-13.697C1.429,-13.577 5.982,-2.006 5.982,4.814C5.982,9.621 4.686,10.946 2.583,12.882C1.885,13.525 0.941,13.81 0.015,13.659C-0.911,13.508 -1.722,12.936 -2.193,12.102C-4.251,8.456 -5.982,5.172 -5.982,-0.064C-5.982,-2.472 -5.801,-4.894 -5.435,-7.014C-4.766,-10.9 -3.477,-13.774 -1.55,-13.697Z" style="fill:white;fill-rule:nonzero;"/>
        </g>
    </g>
    <g transform="matrix(1.70044,0.206114,-0.206114,1.64891,376.545,164.81)">
        <g id="_-vDHl2LB-70GlQmpkvRL8" serif:id="-vDHl2LB-70GlQmpkvRL8">
            <path d="M-1.195,-13.97C1.784,-13.85 6.421,-1.57 6.421,5.25C6.421,9.885 5.231,11.18 3.225,13.068C2.478,13.77 1.464,14.088 0.464,13.933C-0.536,13.777 -1.415,13.164 -1.927,12.265C-4.228,8.227 -6.421,4.114 -6.421,-1.149C-6.421,-7.97 -4.174,-14.089 -1.195,-13.97Z" style="fill:white;fill-rule:nonzero;"/>
        </g>
    </g>
    <g transform="matrix(1.30539,0,0,1.42562,164.591,164.329)">
        <g id="P9pVGDtsfVoxL33CYdJPN">
            <path d="M-5.426,-37.698C10.437,-37.698 33.119,-17.934 33.119,-2.072L33.119,-0.125C33.119,0.415 32.997,0.886 32.738,1.311C32.304,2.02 29.93,2.433 28.697,2.5C28.627,2.504 28.196,2.471 27.95,2.45C27.489,2.411 27.04,2.606 26.779,2.958C26.518,3.311 26.486,3.767 26.695,4.147C26.619,4.139 26.464,4.123 26.464,4.123C26.464,4.123 26.842,4.496 29.657,5.884C32.471,7.272 33.841,8.754 33.841,8.754C33.841,8.754 38.246,13.233 37.73,13.323C37.334,13.392 32.66,9.567 28.101,7.524C23.543,5.481 19.497,5.15 19.497,5.15L15.023,4.941C3.559,4.406 -7.85,6.721 -18.005,11.643C-18.476,11.871 -18.779,12.03 -19.423,12.354C-19.56,12.423 -19.589,12.436 -19.669,12.479C-28.078,17.016 -33.948,24.674 -35.771,33.484C-36.063,34.898 -36.85,37.769 -36.993,37.697C-37.438,37.473 -38.497,28.912 -36.993,21.794C-35.488,14.676 -30.697,11.382 -30.765,11.239C-32.832,6.915 -34.161,-4.572 -34.161,-8.963C-34.161,-24.825 -21.288,-37.698 -5.426,-37.698L-5.426,-37.698Z" style="fill:white;"/>
        </g>
    </g>
    <g transform="matrix(2.07832,0,0,1.71762,161.087,144.783)">
        <g id="DGci6NOJx5uWPWqhcuUka">
            <path d="M-1.439,-15.582C6.154,-15.582 8.255,-11.46 11.389,-7.007C12.277,-5.745 13.027,-4.352 13.622,-2.86L14.798,0.092C15.091,0.827 15.301,1.607 15.422,2.409L16.066,6.683C16.466,9.34 15.106,11.921 12.945,12.606L11.659,13.014C11.659,13.014 11.232,10.784 11.064,10.784C11.267,7.589 10.572,4.404 9.091,1.745L7.135,-1.764C5.905,-3.972 4.336,-5.874 2.512,-7.367C1.269,-8.385 -0.247,-8.798 -1.732,-8.523L-4.273,-8.052C-7.615,-7.434 -10.241,-4.275 -10.769,-0.24L-10.838,0.283C-11.188,2.959 -11.159,5.688 -10.754,8.353L-10.695,8.738C-10.234,11.767 -11.748,14.726 -14.196,15.582C-15.76,12.658 -16.136,7.077 -16.136,2.378C-16.136,-6.223 -10.04,-15.582 -1.439,-15.582Z" style="fill:rgb(76,106,135);fill-rule:nonzero;"/>
        </g>
    </g>
    <g transform="matrix(0.395052,0,0,0.395052,266.343,329.839)">
        <g id="yh_F63GRaat7_kI7TAk2H">
            <path d="M22.255,5.656C24.259,13.697 23.743,12.797 25.33,15.977C31.013,27.364 26.664,41.206 15.49,47.296C11.143,49.666 8.756,49.928 0.72,49.928C-6.708,49.928 -8.455,49.548 -12.275,47.433C-24.082,40.897 -30.106,27.31 -27.024,14.171C-25.266,6.679 -24.182,2.631 -20.791,-8.303C-16.232,-23.007 -8.347,-34.545 -0.545,-46.483C1.193,-49.141 4.399,-50.44 7.497,-49.741C10.594,-49.042 12.932,-46.492 13.359,-43.345C15.57,-27.06 17.838,-12.073 22.255,5.656L22.255,5.656Z" style="fill:rgb(76,106,135);fill-rule:nonzero;"/>
        </g>
    </g>
    <g transform="matrix(1.64891,-0.480933,0.343523,1.18516,172.664,148.218)">
        <g id="_9w4J3P3wZVM5DynEaO2s4" serif:id="9w4J3P3wZVM5DynEaO2s4">
            <path d="M-5.007,-0.096C-4.382,-3.152 -2.443,-5.328 -0.167,-5.528C2.11,-5.728 4.23,-3.909 5.125,-0.987C5.125,1.932 4.537,5.543 1.617,5.543C0.076,5.543 -2.858,4.598 -4.199,3.22C-5.396,1.989 -5.09,0.308 -5.09,0.308L-5.007,-0.096Z" style="fill:rgb(76,106,135);fill-rule:nonzero;"/>
        </g>
    </g>
    <g transform="matrix(0.395052,0,0,0.395052,302.069,331.007)">
        <g id="CjUbV9Elri2ffJ4a0lPwo">
            <path d="M23.718,-10.849L30.037,16.647C32.824,28.774 26.238,41.098 14.607,45.519C5.962,48.805 -0.166,50.038 -13.414,46.05C-36.583,39.077 -29.726,20.191 -29.726,20.191L-29.261,19.345C-18.733,0.208 -10.497,-20.103 -4.724,-41.169L-4.64,-41.476C-3.515,-45.582 0.176,-48.46 4.432,-48.549C8.689,-48.639 12.498,-45.92 13.795,-41.865L23.718,-10.849Z" style="fill:rgb(76,106,135);fill-rule:nonzero;"/>
        </g>
    </g>
    <g transform="matrix(0.257642,0,0,0.257642,232.969,319.172)">
        <g id="UvDmjNiE38R1hN_EUuAvd">
            <path d="M39.138,-12.392C46.485,14.603 44.7,26.469 41.543,45.241C40.137,53.602 33.121,59.869 24.655,60.326L0.718,61.62C-10.989,62.252 -22.441,58.043 -30.951,49.98C-39.462,41.917 -44.283,30.709 -44.283,18.985L-44.283,16.47C-44.283,11.819 -42.174,7.419 -38.548,4.506L-24.505,-6.776C-17.783,-12.176 -12.927,-19.551 -10.622,-27.86L-3.597,-53.182C-2.431,-57.385 0.994,-60.579 5.269,-61.449C9.543,-62.318 13.944,-60.716 16.659,-57.303C26.977,-44.333 32.804,-35.665 39.138,-12.392L39.138,-12.392Z" style="fill:rgb(76,106,135);fill-rule:nonzero;"/>
        </g>
    </g>
    <g transform="matrix(0.206114,0,0,0.206114,208.957,306.41)">
        <g id="biLKpGatOI8ggbyRB0XUr">
            <path d="M39.13,-12.355C46.531,14.836 44.698,26.777 41.486,45.704C40.11,53.809 33.015,59.912 24.428,60.376L1.351,61.622C-10.512,62.263 -22.126,58.212 -30.762,50.421C-39.397,42.631 -44.29,31.789 -44.29,20.446L-44.29,16.098C-44.29,11.694 -42.253,7.514 -38.723,4.679L-24.278,-6.927C-17.703,-12.21 -12.994,-19.3 -10.794,-27.231L-3.474,-53.617C-2.362,-57.624 1.044,-60.676 5.303,-61.481C9.562,-62.287 13.929,-60.705 16.557,-57.406C27.005,-44.287 32.76,-35.762 39.13,-12.355L39.13,-12.355Z" style="fill:rgb(76,106,135);fill-rule:nonzero;"/>
        </g>
    </g>
    <g transform="matrix(0.206114,0,0,0.206114,180.805,285.61)">
        <g id="ekBYuXHCRXpgGw7_KRGeL">
            <path d="M39.13,-12.355C46.531,14.836 44.698,26.777 41.486,45.704C40.11,53.809 33.015,59.912 24.428,60.376L1.351,61.622C-10.512,62.263 -22.126,58.212 -30.762,50.421C-39.397,42.631 -44.29,31.789 -44.29,20.446L-44.29,16.098C-44.29,11.694 -42.253,7.514 -38.723,4.679L-24.278,-6.927C-17.703,-12.21 -12.994,-19.3 -10.794,-27.231L-3.474,-53.617C-2.362,-57.624 1.044,-60.676 5.303,-61.481C9.562,-62.287 13.929,-60.705 16.557,-57.406C27.005,-44.287 32.76,-35.762 39.13,-12.355L39.13,-12.355Z" style="fill:rgb(76,106,135);fill-rule:nonzero;"/>
        </g>
    </g>
    <g transform="matrix(-0.257642,0,0,-0.257642,228.761,284.545)">
        <g id="BjrnIgtayt3SnN4h1Co3o">
            <path d="M24.019,-21.369C29.626,-8.686 33.838,4.569 36.581,18.163L40.948,39.809C42.063,45.337 38.503,50.727 32.981,51.87C6.898,57.271 -19.855,46.323 -34.669,24.188L-39.613,16.8C-41.863,13.439 -41.627,8.998 -39.035,5.894L-25.4,-10.433C-20.526,-16.268 -16.442,-22.719 -13.251,-29.62L-4.883,-47.717C-3.316,-51.106 0.09,-53.264 3.824,-53.232C7.557,-53.201 10.927,-50.986 12.436,-47.571L24.019,-21.369Z" style="fill:rgb(76,106,135);fill-rule:nonzero;"/>
        </g>
    </g>
    <g transform="matrix(0.291995,0,0,-0.291995,279.946,274.909)">
        <g id="V5JgLxHcqEnbjAXIZD2Sl">
            <path d="M26.258,-1.798C34.481,22.771 34.779,27.183 36.047,41.91C36.458,46.692 33.228,51.026 28.528,51.999L28.016,52.105C2.321,57.426 -23.502,43.604 -33.326,19.272L-35.081,14.925C-36.507,11.392 -36.406,7.425 -34.8,3.969L-24.254,-18.734L-10.983,-47.436C-9.37,-50.924 -5.901,-53.179 -2.059,-53.238C1.783,-53.296 5.319,-51.148 7.037,-47.711C14.381,-33.019 19.373,-22.369 26.258,-1.798Z" style="fill:rgb(76,106,135);fill-rule:nonzero;"/>
        </g>
    </g>
    <g transform="matrix(0.257642,0,0,-0.291995,340.458,238.891)">
        <g id="ZC-lfq-fWaMhGNbkDtP52">
            <path d="M28.707,-1.404C37.188,23.933 37.439,28.602 38.658,43.74C38.98,47.744 35.958,51.362 31.525,52.28L31.061,52.376C4.879,57.797 -22.02,46.251 -33.32,24.742L-37.54,16.707C-39.1,13.738 -39.059,10.307 -37.428,7.368L-21.805,-20.789L-8.156,-48.788C-6.709,-51.757 -3.402,-53.688 0.264,-53.705C3.93,-53.722 7.26,-51.822 8.742,-48.867C16.407,-33.589 21.574,-22.717 28.707,-1.404L28.707,-1.404Z" style="fill:rgb(76,106,135);fill-rule:nonzero;"/>
        </g>
    </g>
    <g transform="matrix(0.208762,0.104867,0.112252,-0.231903,187.182,241.052)">
        <g id="VEaoIEy2ZgqsWASp_8BBk">
            <path d="M28.707,-1.408C37.185,23.923 37.437,28.591 38.656,43.726C38.979,47.735 35.956,51.357 31.522,52.275L31.043,52.375C4.867,57.795 -22.023,46.242 -33.331,24.717L-37.536,16.712C-39.099,13.737 -39.058,10.299 -37.424,7.354L-21.806,-20.793L-8.164,-48.779C-6.714,-51.752 -3.405,-53.686 0.263,-53.703C3.932,-53.72 7.263,-51.817 8.748,-48.857C16.41,-33.585 21.575,-22.715 28.707,-1.408L28.707,-1.408Z" style="fill:rgb(76,106,135);fill-rule:nonzero;"/>
        </g>
    </g>
    <g transform="matrix(0.161177,-0.0166957,-0.0245673,-0.184157,172.043,233.81)">
        <g id="_8JuU5tgMy1wclitnC-Hh4" serif:id="8JuU5tgMy1wclitnC-Hh4">
            <path d="M28.72,-1.333C37.23,24.09 37.475,28.788 38.688,43.971C39.001,47.887 36.002,51.426 31.596,52.338L31.154,52.43C4.987,57.848 -21.943,46.443 -33.091,25.222L-37.603,16.635C-39.117,13.751 -39.077,10.434 -37.493,7.579L-21.792,-20.718L-8.018,-48.974C-6.608,-51.866 -3.345,-53.752 0.278,-53.769C3.901,-53.786 7.187,-51.93 8.633,-49.051C16.348,-33.68 21.546,-22.767 28.72,-1.333L28.72,-1.333Z" style="fill:rgb(76,106,135);fill-rule:nonzero;"/>
        </g>
    </g>
    <g transform="matrix(0.257642,0,0,-0.291995,309.3,255.311)">
        <g id="_ffAAyfR7nwrxEl5FbhIR">
            <path d="M33.777,3.626C43.533,32.775 33.777,44.098 33.777,44.098C22.852,49.896 9.665,51.364 -2.549,48.143C-14.763,44.921 -24.873,37.308 -30.399,27.171L-35.516,17.785C-38.161,12.933 -38.81,7.419 -37.351,2.191L-35.882,-3.07C-33.062,-13.178 -27.903,-22.662 -20.731,-30.928L-8.309,-45.244C-5.47,-48.516 -0.885,-50.223 3.753,-49.735C8.39,-49.247 12.391,-46.635 14.277,-42.866C21.768,-27.901 26.791,-17.244 33.777,3.626L33.777,3.626Z" style="fill:rgb(76,106,135);fill-rule:nonzero;"/>
        </g>
    </g>
    <g transform="matrix(0.240466,0.0687047,0.0858808,-0.257642,376.545,236.091)">
        <g id="_7W2DMZ_WWvGrMk_B_CP80" serif:id="7W2DMZ_WWvGrMk_B_CP80">
            <path d="M31.227,-1.922C40.984,27.228 41.737,50.169 41.737,50.169L32.418,52.099C17.551,55.177 3.918,53.579 -9.725,47.164C-20.774,41.968 -28.874,35.048 -35.499,25.148C-35.499,25.148 -38.336,20.909 -39.733,18.821C-42.666,14.439 -42.355,8.765 -38.958,4.699L-26.269,-10.495C-21.633,-16.047 -17.765,-22.145 -14.763,-28.638L-5.744,-48.143C-4.228,-51.422 -0.847,-53.559 2.913,-53.612C6.672,-53.666 10.119,-51.628 11.738,-48.394C19.199,-33.488 24.251,-22.763 31.227,-1.922L31.227,-1.922Z" style="fill:rgb(76,106,135);fill-rule:nonzero;"/>
        </g>
    </g>
    <g transform="matrix(0.154585,-0.0171762,-0.0171762,-0.154585,399.217,230.681)">
        <g id="mP1Le4gpDNcncWncyokVj">
            <path d="M31.959,-2.039C39.962,21.87 40.31,26.142 41.604,40.468C42.097,45.929 38.416,50.891 33.047,52.002L32.485,52.118C6.403,57.519 -20.35,46.572 -35.165,24.436L-40.109,17.049C-42.358,13.688 -42.122,9.246 -39.53,6.142L-25.895,-10.184C-21.022,-16.02 -16.937,-22.471 -13.746,-29.372L-5.282,-47.678C-3.669,-51.166 -0.2,-53.421 3.642,-53.48C7.484,-53.538 11.02,-51.39 12.738,-47.953C20.082,-33.261 25.074,-22.611 31.959,-2.039L31.959,-2.039Z" style="fill:rgb(76,106,135);fill-rule:nonzero;"/>
        </g>
    </g>
    <g transform="matrix(-0.22329,-0.0343523,0.0343523,-0.22329,202.464,264.638)">
        <g id="ko0fGwAWKo2v4LaT-EQAc">
            <path d="M38.963,-9.172L34.387,44.285C33.682,52.527 27.391,59.198 19.204,60.386C-7.375,64.24 -33.285,49.996 -44.271,25.489L-44.321,25.378C-46.271,21.026 -46.124,16.02 -43.92,11.791L-38.679,1.729C-23.944,-26.553 0.517,-48.556 30.196,-60.225C34.003,-61.721 38.321,-61.052 41.496,-58.472C44.671,-55.893 46.21,-51.804 45.525,-47.771L38.963,-9.172Z" style="fill:rgb(76,106,135);fill-rule:nonzero;"/>
        </g>
    </g>
    <g transform="matrix(0.154585,0.0343523,-0.0343523,0.154585,163.749,264.638)">
        <g id="WRZOrmdqVFMeKq8zKkidP">
            <path d="M38.963,-9.172L34.386,44.294C33.681,52.531 27.394,59.198 19.212,60.384L19.174,60.39C-7.387,64.242 -33.281,50.007 -44.259,25.515L-44.323,25.373C-46.273,21.024 -46.125,16.022 -43.923,11.795L-38.664,1.702C-23.939,-26.562 0.506,-48.552 30.166,-60.213L30.208,-60.229C34.012,-61.725 38.327,-61.056 41.5,-58.478C44.673,-55.9 46.211,-51.814 45.526,-47.783L38.963,-9.172Z" style="fill:rgb(76,106,135);fill-rule:nonzero;"/>
        </g>
    </g>
    <g transform="matrix(0.395052,0,0,0.395052,340.99,323.741)">
        <g id="_6hyR5afWEsuV9en0gJ8sb" serif:id="6hyR5afWEsuV9en0gJ8sb">
            <path d="M-1.818,-36.068C9.117,-25.435 16.917,-11.998 20.727,2.771L23.387,14.703C25.443,24.148 19.914,33.592 10.671,36.422L4.862,38.03C-1.101,39.653 -7.434,39.232 -13.13,36.836L-15.75,35.696C-21.267,33.296 -24.512,27.516 -23.688,21.556C-22.427,12.427 -21.851,8.943 -20.349,-6.17C-19.253,-17.198 -18.887,-22.162 -18.336,-30.052C-18.075,-33.787 -15.67,-37.032 -12.172,-38.368C-8.674,-39.703 -4.718,-38.888 -2.034,-36.278L-1.818,-36.068Z" style="fill:rgb(76,106,135);fill-rule:nonzero;"/>
        </g>
    </g>
    <g transform="matrix(0.395052,0,0,-0.309171,257.085,291.845)">
        <g id="GA5y2v4ujnoF2E6TcqKGb">
            <path d="M0.38,-34.821C10.031,-25.436 17.228,-12.54 21.023,2.169L22.41,8.392C23.719,14.264 23.074,20.565 20.628,25.81C18.182,31.056 14.15,34.784 9.482,36.115L3.441,37.838C-1.531,39.256 -6.714,38.896 -11.536,36.798L-14.378,35.562C-20.36,32.959 -23.968,25.185 -22.881,17.239C-21.802,9.345 -21.353,6.302 -20.054,-6.773C-19.18,-15.563 -18.848,-19.504 -18.403,-25.794C-18.039,-30.93 -15.518,-35.409 -11.82,-37.487C-8.122,-39.565 -3.831,-38.916 -0.617,-35.79L0.38,-34.821Z" style="fill:rgb(76,106,135);fill-rule:nonzero;"/>
        </g>
    </g>
    <g transform="matrix(0.395052,0,0,0.395052,367.562,313.659)">
        <g id="RjRkvmJGBsX43H0z9n5V8">
            <path d="M6.914,-21.369C14.049,-11.898 17.908,-0.362 17.908,11.496C17.908,16.798 15.249,21.746 10.828,24.672L7.283,27.019C1.518,30.835 -5.887,31.141 -11.946,27.813C-17.147,24.957 -19.319,18.611 -16.957,13.167C-12.667,3.279 -10.453,-7.385 -10.453,-18.164L-10.453,-22.916C-10.453,-26.01 -8.475,-28.757 -5.541,-29.739C-2.607,-30.72 0.626,-29.716 2.487,-27.245L6.914,-21.369Z" style="fill:rgb(76,106,135);fill-rule:nonzero;"/>
        </g>
    </g>
    <g transform="matrix(0.291995,0,0,0.291995,387.177,315.668)">
        <g id="Us-szcteCIRWOmcmHYgC5">
            <path d="M7.819,-20.997C13.782,-13.081 17.52,-3.715 18.645,6.131C19.089,10.016 19.141,13.427 16.927,17.854C13.783,24.142 10.148,25.894 5.516,27.715C0.074,29.855 -6.038,29.465 -11.163,26.65L-12.927,25.681C-18.129,22.825 -20.3,16.479 -17.938,11.035C-13.648,1.147 -11.434,-9.517 -11.434,-20.296C-11.434,-24.073 -9.019,-27.428 -5.437,-28.626C-1.855,-29.825 2.093,-28.598 4.365,-25.581L7.819,-20.997Z" style="fill:rgb(76,106,135);fill-rule:nonzero;"/>
        </g>
    </g>
    <g transform="matrix(0.841632,0,0,0.841632,307.05,93.3915)">
        <g id="lANhu5cpLxQJO6hDkcnN0">
            <path d="M-7.038,11.352L-3.649,11.352C-3.649,11.246 -3.444,11.149 -3.344,11.049C-1.739,9.455 -0.824,7.642 -0.495,5.404C-0.222,3.551 -0.421,1.911 -1.127,0.176C-1.678,-1.178 -2.612,-2.684 -3.649,-3.467C-4.038,-3.761 -5.474,-4.3 -6.424,-4.556C-9.055,-5.266 -11.767,-3.725 -12.505,-1.102C-12.913,0.35 -13.92,3.208 -14.284,3.11C-15.267,2.846 -20.377,-0.322 -22.187,-5.883C-23.997,-11.443 -11.009,-19.126 -7.038,-19.126C2.727,-19.126 16.879,-6.646 22.073,3.11C22.242,3.428 22.388,3.49 22.354,3.703C21.576,8.547 17.844,12.382 13.024,13.291C11.083,13.658 7.481,14.779 7.481,15.553C7.481,23.593 13.02,15.553 5.197,15.553C-7.12,15.553 -12.595,11.049 -12.595,11.049L-7.038,11.352Z" style="fill:white;fill-rule:nonzero;"/>
        </g>
    </g>
    <g transform="matrix(1.71762,0,0,1.71762,307.497,101.98)">
        <g id="ctVxEjW4z60tH43grTv5G">
            <path d="M-19.27,-6.549C-18.835,-6.205 -18.312,-6.37 -17.863,-6.044C-17.458,-5.75 -16.972,-5.377 -16.555,-5.02C-13.705,-2.582 -10.339,-0.823 -6.711,0.126C-3.742,0.901 0.882,2.06 2.289,2.461L1.118,2.461C1.118,2.461 6.3,-4.516 8.29,-4.241C8.964,-4.148 2.884,0.669 3.506,2.461C3.582,2.681 8.348,2.562 10.733,2.529C12.514,2.505 14.285,2.807 15.957,3.42L19.258,4.627C19.318,5.138 19.147,5.648 18.791,6.02C18.435,6.391 17.932,6.583 17.419,6.544L0.067,5.221C-1.616,5.093 -3.275,4.742 -4.865,4.177L-7.211,3.345C-10.525,2.168 -13.535,0.267 -16.022,-2.22C-17.284,-3.483 -19.27,-5.747 -19.27,-6.549L-19.27,-6.549Z" style="fill:white;fill-rule:nonzero;"/>
        </g>
    </g>
    <g transform="matrix(-1.16798,0.429404,-0.291995,-0.824456,302.069,73.9137)">
        <g id="XFBgj7wjuSQHASihQK_nY">
            <path d="M-8.672,4.099C-10.984,-0.569 -12.044,-6.258 -11.659,-11.939L-11.658,-11.953C-11.635,-12.292 -11.447,-12.561 -11.208,-12.595C-10.97,-12.629 -10.747,-12.419 -10.677,-12.094C-10.362,-10.636 -10.217,-9.784 -9.954,-7.588C-9.855,-6.766 -9.723,-6.644 -9.61,-6.179C-8.771,-2.745 -7.225,0.253 -5.171,2.423C-3.258,4.444 -6.575,2.441 1.533,6.253C2.632,6.769 1.795,6.358 1.927,6.357C4.673,6.339 7.408,5.862 10.076,4.936C10.169,4.904 10.159,4.768 10.358,4.838C10.918,5.035 11.038,5.074 11.219,5.444C11.772,6.58 11.89,8.033 11.532,9.317C11.175,10.602 10.389,11.548 9.438,11.84L9.316,11.878C5.164,13.151 0.843,12.732 -3.148,10.669C-5.134,9.643 -6.85,7.777 -8.065,5.323L-8.672,4.099Z" style="fill:white;fill-rule:nonzero;"/>
        </g>
    </g>
</svg>
